<?xml version="1.0" encoding="UTF-8" standalone="no"?>
<svg
   xmlns:dc="http://purl.org/dc/elements/1.1/"
   xmlns:cc="http://creativecommons.org/ns#"
   xmlns:rdf="http://www.w3.org/1999/02/22-rdf-syntax-ns#"
   xmlns:svg="http://www.w3.org/2000/svg"
   xmlns="http://www.w3.org/2000/svg"
   xmlns:sodipodi="http://sodipodi.sourceforge.net/DTD/sodipodi-0.dtd"
   xmlns:inkscape="http://www.inkscape.org/namespaces/inkscape"
   inkscape:version="1.0 (4035a4f, 2020-05-01)"
   sodipodi:docname="right_not_left.svg"
   id="svg8"
   version="1.1"
   viewBox="0 0 173 104"
   height="104mm"
   width="173mm">
  <defs
     id="defs2" />
  <sodipodi:namedview
     inkscape:window-maximized="0"
     inkscape:window-y="23"
     inkscape:window-x="0"
     inkscape:window-height="693"
     inkscape:window-width="1252"
     showgrid="false"
     inkscape:document-rotation="0"
     inkscape:current-layer="layer1"
     inkscape:document-units="mm"
     inkscape:cy="222.54766"
     inkscape:cx="646.49366"
     inkscape:zoom="0.42675466"
     inkscape:pageshadow="2"
     inkscape:pageopacity="0.0"
     borderopacity="1.0"
     bordercolor="#666666"
     pagecolor="#ffffff"
     id="base" />
  <metadata
     id="metadata5">
    <rdf:RDF>
      <cc:Work
         rdf:about="">
        <dc:format>image/svg+xml</dc:format>
        <dc:type
           rdf:resource="http://purl.org/dc/dcmitype/StillImage" />
        <dc:title></dc:title>
      </cc:Work>
    </rdf:RDF>
  </metadata>
  <g
     id="layer1"
     inkscape:groupmode="layer"
     inkscape:label="Layer 1">
    <path
       d="m 60.402501,1.8897328 a 50.27083,50.27083 0 0 0 -50.121488,50.2705402 50.27083,50.27083 0 0 0 50.270832,50.270557 50.27083,50.27083 0 0 0 26.45829,-7.52664 50.27083,50.27083 0 0 1 -0.0377,-0.0233 50.27083,50.27083 0 0 1 -0.260447,-0.16226 50.27083,50.27083 0 0 1 -0.2589,-0.163817 50.27083,50.27083 0 0 1 -0.258377,-0.16588 50.27083,50.27083 0 0 1 -0.25683,-0.16691 50.27083,50.27083 0 0 1 -0.256317,-0.168977 50.27083,50.27083 0 0 1 -0.25476,-0.17002 50.27083,50.27083 0 0 1 -0.254247,-0.17208 50.27083,50.27083 0 0 1 -0.2527,-0.173117 50.27083,50.27083 0 0 1 -0.25218,-0.17518 50.27083,50.27083 0 0 1 -0.250627,-0.17622 50.27083,50.27083 0 0 1 -0.25011,-0.178277 50.27083,50.27083 0 0 1 -0.248557,-0.17932 50.27083,50.27083 0 0 1 -0.24754,-0.18087 50.27083,50.27083 0 0 1 -0.246487,-0.182927 50.27083,50.27083 0 0 1 -0.24495,-0.18397 50.27083,50.27083 0 0 1 -0.244427,-0.18552 50.27083,50.27083 0 0 1 -0.24288,-0.187067 50.27083,50.27083 0 0 1 -0.241837,-0.1881 50.27083,50.27083 0 0 1 -0.24082,-0.190167 50.27083,50.27083 0 0 1 -0.239767,-0.1912 50.27083,50.27083 0 0 1 -0.23823,-0.19327 50.27083,50.27083 0 0 1 -0.2372,-0.194297 50.27083,50.27083 0 0 1 -0.236157,-0.19586 50.27083,50.27083 0 0 1 -0.23513,-0.19689 50.27083,50.27083 0 0 1 -0.233567,-0.198947 50.27083,50.27083 0 0 1 -0.23255,-0.19999 50.27083,50.27083 0 0 1 -0.230987,-0.20154 50.27083,50.27083 0 0 1 -0.22996,-0.202567 50.27083,50.27083 0 0 1 -0.228927,-0.20464 50.27083,50.27083 0 0 1 -0.227378,-0.205667 50.27083,50.27083 0 0 1 -0.226343,-0.2067 50.27083,50.27083 0 0 1 -0.224792,-0.20878 50.27083,50.27083 0 0 1 -0.223758,-0.209797 50.27083,50.27083 0 0 1 -0.222208,-0.21084 50.27083,50.27083 0 0 1 -0.221176,-0.212907 50.27083,50.27083 0 0 1 -0.219625,-0.21342 50.27083,50.27083 0 0 1 -0.218591,-0.21549 50.27083,50.27083 0 0 1 -0.21704,-0.216527 50.27083,50.27083 0 0 1 -0.216009,-0.21756 50.27083,50.27083 0 0 1 -0.214458,-0.219617 50.27083,50.27083 0 0 1 -0.213423,-0.22014 50.27083,50.27083 0 0 1 -0.211873,-0.22169 50.27083,50.27083 0 0 1 -0.210323,-0.223247 50.27083,50.27083 0 0 1 -0.209291,-0.22427 50.27083,50.27083 0 0 1 -0.207221,-0.225827 50.27083,50.27083 0 0 1 -0.206706,-0.22686 50.27083,50.27083 0 0 1 -0.204639,-0.227887 50.27083,50.27083 0 0 1 -0.203605,-0.22944 50.27083,50.27083 0 0 1 -0.202571,-0.23048 50.27083,50.27083 0 0 1 -0.200506,-0.232027 50.27083,50.27083 0 0 1 -0.199469,-0.23306 50.27083,50.27083 0 0 1 -0.197922,-0.234087 50.27083,50.27083 0 0 1 -0.196371,-0.23565 50.27083,50.27083 0 0 1 -0.194821,-0.236667 50.27083,50.27083 0 0 1 -0.193786,-0.23772 50.27083,50.27083 0 0 1 -0.192236,-0.239257 50.27083,50.27083 0 0 1 -0.190685,-0.23978 50.27083,50.27083 0 0 1 -0.189137,-0.241837 50.27083,50.27083 0 0 1 -0.187584,-0.24237 50.27083,50.27083 0 0 1 -0.186553,-0.24339 50.27083,50.27083 0 0 1 -0.184483,-0.244947 50.27083,50.27083 0 0 1 -0.183452,-0.24598 50.27083,50.27083 0 0 1 -0.181901,-0.247007 50.27083,50.27083 0 0 1 -0.179834,-0.24805 50.27083,50.27083 0 0 1 -0.178801,-0.249077 50.27083,50.27083 0 0 1 -0.177252,-0.25063 50.27083,50.27083 0 0 1 -0.175699,-0.251147 50.27083,50.27083 0 0 1 -0.174149,-0.25218 50.27083,50.27083 0 0 1 -0.172598,-0.253727 50.27083,50.27083 0 0 1 -0.171051,-0.25476 50.27083,50.27083 0 0 1 -0.169497,-0.255277 50.27083,50.27083 0 0 1 -0.167949,-0.25684 50.27083,50.27083 0 0 1 -0.1664,-0.257337 50.27083,50.27083 0 0 1 -0.164846,-0.2589 50.27083,50.27083 0 0 1 -0.163298,-0.259417 50.27083,50.27083 0 0 1 -0.161232,-0.26097 50.27083,50.27083 0 0 1 -0.160194,-0.261477 50.27083,50.27083 0 0 1 -0.158647,-0.26251 50.27083,50.27083 0 0 1 -0.15658,-0.263557 50.27083,50.27083 0 0 1 -0.15503,-0.26458 50.27083,50.27083 0 0 1 -0.153996,-0.265097 50.27083,50.27083 0 0 1 -0.151929,-0.26665 50.27083,50.27083 0 0 1 -0.150378,-0.267167 50.27083,50.27083 0 0 1 -0.14831,-0.2682 50.27083,50.27083 0 0 1 -0.147278,-0.269227 50.27083,50.27083 0 0 1 -0.145211,-0.26975 50.27083,50.27083 0 0 1 -0.144177,-0.271297 50.27083,50.27083 0 0 1 -0.14211,-0.27182 50.27083,50.27083 0 0 1 -0.14056,-0.272337 50.27083,50.27083 0 0 1 -0.138493,-0.27337 50.27083,50.27083 0 0 1 -0.136943,-0.274397 50.27083,50.27083 0 0 1 -0.135909,-0.27543 50.27083,50.27083 0 0 1 -0.133326,-0.275947 50.27083,50.27083 0 0 1 -0.132292,-0.27647 50.27083,50.27083 0 0 1 -0.130225,-0.277507 50.27083,50.27083 0 0 1 -0.128672,-0.27853 50.27083,50.27083 0 0 1 -0.127125,-0.279047 50.27083,50.27083 0 0 1 -0.125573,-0.28009 50.27083,50.27083 0 0 1 -0.123508,-0.280597 50.27083,50.27083 0 0 1 -0.121957,-0.28164 50.27083,50.27083 0 0 1 -0.119888,-0.282147 50.27083,50.27083 0 0 1 -0.11834,-0.28267 50.27083,50.27083 0 0 1 -0.116787,-0.283707 50.27083,50.27083 0 0 1 -0.114724,-0.284217 50.27083,50.27083 0 0 1 -0.113686,-0.28525 50.27083,50.27083 0 0 1 -0.111106,-0.285247 50.27083,50.27083 0 0 1 -0.11007,-0.28681 50.27083,50.27083 0 0 1 -0.108002,-0.286797 50.27083,50.27083 0 0 1 -0.105937,-0.28784 50.27083,50.27083 0 0 1 -0.104389,-0.288357 50.27083,50.27083 0 0 1 -0.102835,-0.28887 50.27083,50.27083 0 0 1 -0.101285,-0.289387 50.27083,50.27083 0 0 1 -0.0987,-0.29042 50.27083,50.27083 0 0 1 -0.09767,-0.290927 50.27083,50.27083 0 0 1 -0.0956,-0.290937 50.27083,50.27083 0 0 1 -0.09405,-0.29198 50.27083,50.27083 0 0 1 -0.09198,-0.292477 50.27083,50.27083 0 0 1 -0.09043,-0.29353 50.27083,50.27083 0 0 1 -0.08837,-0.293517 50.27083,50.27083 0 0 1 -0.08682,-0.29404 50.27083,50.27083 0 0 1 -0.08475,-0.294547 50.27083,50.27083 0 0 1 -0.0832,-0.29559 50.27083,50.27083 0 0 1 -0.08113,-0.295587 50.27083,50.27083 0 0 1 -0.07958,-0.296107 50.27083,50.27083 0 0 1 -0.07751,-0.29662 50.27083,50.27083 0 0 1 -0.07596,-0.297137 50.27083,50.27083 0 0 1 -0.07441,-0.29765 50.27083,50.27083 0 0 1 -0.07183,-0.298177 50.27083,50.27083 0 0 1 -0.0708,-0.29817 50.27083,50.27083 0 0 1 -0.06821,-0.299207 50.27083,50.27083 0 0 1 -0.06718,-0.299207 50.27083,50.27083 0 0 1 -0.06459,-0.29972 50.27083,50.27083 0 0 1 -0.06356,-0.300237 50.27083,50.27083 0 0 1 -0.06098,-0.30024 50.27083,50.27083 0 0 1 -0.05943,-0.300747 50.27083,50.27083 0 0 1 -0.05788,-0.30128 50.27083,50.27083 0 0 1 -0.05581,-0.301787 50.27083,50.27083 0 0 1 -0.05374,-0.30179 50.27083,50.27083 0 0 1 -0.05219,-0.302307 50.27083,50.27083 0 0 1 -0.05013,-0.302297 50.27083,50.27083 0 0 1 -0.04857,-0.30283 50.27083,50.27083 0 0 1 -0.04651,-0.303337 50.27083,50.27083 0 0 1 -0.04444,-0.30334 50.27083,50.27083 0 0 1 -0.04289,-0.303847 50.27083,50.27083 0 0 1 -0.04134,-0.30386 50.27083,50.27083 0 0 1 -0.03928,-0.303857 50.27083,50.27083 0 0 1 -0.03721,-0.304367 50.27083,50.27083 0 0 1 -0.03514,-0.30489 50.27083,50.27083 0 0 1 -0.03359,-0.304897 50.27083,50.27083 0 0 1 -0.03204,-0.30489 50.27083,50.27083 0 0 1 -0.02946,-0.305407 50.27083,50.27083 0 0 1 -0.02842,-0.305397 50.27083,50.27083 0 0 1 -0.02585,-0.30541 50.27083,50.27083 0 0 1 -0.02429,-0.305407 50.27083,50.27083 0 0 1 -0.02273,-0.30592 50.27083,50.27083 0 0 1 -0.02016,-0.305927 50.27083,50.27083 0 0 1 -0.0186,-0.30644 50.27083,50.27083 0 0 1 -0.01704,-0.305917 50.27083,50.27083 0 0 1 -0.01498,-0.306437 50.27083,50.27083 0 0 1 -0.01291,-0.30645 50.27083,50.27083 0 0 1 -0.01138,-0.306437 50.27083,50.27083 0 0 1 -0.0093,-0.30644 50.27083,50.27083 0 0 1 -0.0072,-0.306957 50.27083,50.27083 0 0 1 -0.0057,-0.30644 50.27083,50.27083 0 0 1 -0.0036,-0.306437 50.27083,50.27083 0 0 1 -0.0021,-0.306957 50.27083,50.27083 0 0 1 0,-0.14882 50.27083,50.27083 0 0 1 0.0011,-0.30696 50.27083,50.27083 0 0 1 0.0026,-0.306437 50.27083,50.27083 0 0 1 0.0047,-0.306957 50.27083,50.27083 0 0 1 0.0067,-0.30644 50.27083,50.27083 0 0 1 0.0083,-0.306437 50.27083,50.27083 0 0 1 0.01035,-0.30645 50.27083,50.27083 0 0 1 0.01188,-0.306437 50.27083,50.27083 0 0 1 0.01447,-0.306437 50.27083,50.27083 0 0 1 0.01551,-0.30644 50.27083,50.27083 0 0 1 0.0181,-0.305917 50.27083,50.27083 0 0 1 0.01963,-0.30644 50.27083,50.27083 0 0 1 0.02119,-0.305927 50.27083,50.27083 0 0 1 0.02326,-0.30541 50.27083,50.27083 0 0 1 0.02532,-0.305917 50.27083,50.27083 0 0 1 0.02739,-0.305407 50.27083,50.27083 0 0 1 0.02894,-0.30541 50.27083,50.27083 0 0 1 0.03049,-0.304887 50.27083,50.27083 0 0 1 0.03307,-0.30489 50.27083,50.27083 0 0 1 0.03411,-0.304887 50.27083,50.27083 0 0 1 0.03669,-0.30437 50.27083,50.27083 0 0 1 0.03824,-0.304377 50.27083,50.27083 0 0 1 0.04031,-0.303857 50.27083,50.27083 0 0 1 0.04186,-0.30385 50.27083,50.27083 0 0 1 0.04392,-0.303857 50.27083,50.27083 0 0 1 0.04548,-0.30282 50.27083,50.27083 0 0 1 0.04754,-0.303337 50.27083,50.27083 0 0 1 0.04909,-0.30231 50.27083,50.27083 0 0 1 0.05116,-0.302307 50.27083,50.27083 0 0 1 0.05323,-0.302307 50.27083,50.27083 0 0 1 0.05478,-0.30179 50.27083,50.27083 0 0 1 0.05684,-0.301267 50.27083,50.27083 0 0 1 0.05839,-0.30127 50.27083,50.27083 0 0 1 0.06046,-0.300237 50.27083,50.27083 0 0 1 0.06253,-0.30076 50.27083,50.27083 0 0 1 0.06408,-0.299717 50.27083,50.27083 0 0 1 0.06563,-0.299727 50.27083,50.27083 0 0 1 0.0677,-0.29869 50.27083,50.27083 0 0 1 0.06976,-0.298687 50.27083,50.27083 0 0 1 0.07131,-0.29817 50.27083,50.27083 0 0 1 0.07338,-0.298167 50.27083,50.27083 0 0 1 0.07493,-0.29714 50.27083,50.27083 0 0 1 0.07648,-0.297137 50.27083,50.27083 0 0 1 0.07906,-0.296107 50.27083,50.27083 0 0 1 0.0801,-0.2961 50.27083,50.27083 0 0 1 0.08216,-0.295587 50.27083,50.27083 0 0 1 0.08423,-0.29508 50.27083,50.27083 0 0 1 0.08578,-0.294027 50.27083,50.27083 0 0 1 0.08785,-0.29404 50.27083,50.27083 0 0 1 0.0894,-0.293527 50.27083,50.27083 0 0 1 0.09095,-0.29248 50.27083,50.27083 0 0 1 0.09302,-0.292487 50.27083,50.27083 0 0 1 0.09508,-0.291457 50.27083,50.27083 0 0 1 0.09612,-0.29094 50.27083,50.27083 0 0 1 0.0987,-0.290927 50.27083,50.27083 0 0 1 0.09973,-0.28991 50.27083,50.27083 0 0 1 0.101804,-0.288867 50.27083,50.27083 0 0 1 0.10387,-0.28887 50.27083,50.27083 0 0 1 0.105418,-0.287837 50.27083,50.27083 0 0 1 0.106971,-0.28732 50.27083,50.27083 0 0 1 0.109037,-0.286797 50.27083,50.27083 0 0 1 0.110588,-0.28578 50.27083,50.27083 0 0 1 0.112655,-0.285757 50.27083,50.27083 0 0 1 0.113688,-0.284737 50.27083,50.27083 0 0 1 0.116272,-0.28371 50.27083,50.27083 0 0 1 0.117305,-0.283177 50.27083,50.27083 0 0 1 0.119372,-0.28267 50.27083,50.27083 0 0 1 0.120923,-0.281637 50.27083,50.27083 0 0 1 0.122991,-0.28112 50.27083,50.27083 0 0 1 0.12454,-0.280087 50.27083,50.27083 0 0 1 0.12609,-0.27956 50.27083,50.27083 0 0 1 0.12764,-0.279057 50.27083,50.27083 0 0 1 0.129709,-0.27802 50.27083,50.27083 0 0 1 0.131257,-0.276977 50.27083,50.27083 0 0 1 0.132808,-0.27647 50.27083,50.27083 0 0 1 0.134877,-0.275437 50.27083,50.27083 0 0 1 0.135908,-0.27491 50.27083,50.27083 0 0 1 0.137978,-0.273367 50.27083,50.27083 0 0 1 0.140041,-0.27337 50.27083,50.27083 0 0 1 0.141078,-0.272337 50.27083,50.27083 0 0 1 0.143143,-0.2713 50.27083,50.27083 0 0 1 0.144695,-0.270267 50.27083,50.27083 0 0 1 0.146243,-0.26923 50.27083,50.27083 0 0 1 0.147796,-0.268717 50.27083,50.27083 0 0 1 0.149344,-0.26768 50.27083,50.27083 0 0 1 0.151411,-0.267167 50.27083,50.27083 0 0 1 0.152963,-0.26562 50.27083,50.27083 0 0 1 0.153996,-0.265097 50.27083,50.27083 0 0 1 0.156062,-0.26406 50.27083,50.27083 0 0 1 0.157615,-0.263037 50.27083,50.27083 0 0 1 0.159678,-0.26199 50.27083,50.27083 0 0 1 0.160714,-0.260967 50.27083,50.27083 0 0 1 0.162266,-0.26045 50.27083,50.27083 0 0 1 0.16433,-0.258897 50.27083,50.27083 0 0 1 0.165365,-0.25838 50.27083,50.27083 0 0 1 0.167431,-0.256827 50.27083,50.27083 0 0 1 0.168465,-0.25632 50.27083,50.27083 0 0 1 0.170532,-0.254757 50.27083,50.27083 0 0 1 0.171566,-0.25425 50.27083,50.27083 0 0 1 0.173633,-0.252697 50.27083,50.27083 0 0 1 0.174667,-0.25218 50.27083,50.27083 0 0 1 0.176734,-0.250627 50.27083,50.27083 0 0 1 0.177766,-0.25012 50.27083,50.27083 0 0 1 0.179316,-0.248557 50.27083,50.27083 0 0 1 0.181385,-0.24753 50.27083,50.27083 0 0 1 0.182417,-0.246497 50.27083,50.27083 0 0 1 0.18397,-0.24494 50.27083,50.27083 0 0 1 0.185518,-0.244427 50.27083,50.27083 0 0 1 0.187068,-0.24288 50.27083,50.27083 0 0 1 0.188619,-0.241847 50.27083,50.27083 0 0 1 0.189653,-0.24081 50.27083,50.27083 0 0 1 0.19172,-0.23978 50.27083,50.27083 0 0 1 0.192752,-0.238217 50.27083,50.27083 0 0 1 0.194304,-0.2372 50.27083,50.27083 0 0 1 0.195853,-0.236157 50.27083,50.27083 0 0 1 0.197406,-0.23513 50.27083,50.27083 0 0 1 0.198437,-0.233577 50.27083,50.27083 0 0 1 0.199988,-0.23254 50.27083,50.27083 0 0 1 0.201536,-0.230987 50.27083,50.27083 0 0 1 0.203089,-0.22996 50.27083,50.27083 0 0 1 0.204123,-0.22893 50.27083,50.27083 0 0 1 0.205671,-0.227377 50.27083,50.27083 0 0 1 0.207222,-0.22634 50.27083,50.27083 0 0 1 0.208256,-0.224787 50.27083,50.27083 0 0 1 0.209807,-0.22376 50.27083,50.27083 0 0 1 0.211357,-0.222207 50.27083,50.27083 0 0 1 0.212389,-0.22118 50.27083,50.27083 0 0 1 0.213942,-0.21962 50.27083,50.27083 0 0 1 0.214974,-0.218587 50.27083,50.27083 0 0 1 0.216524,-0.21704 50.27083,50.27083 0 0 1 0.218075,-0.216007 50.27083,50.27083 0 0 1 0.219107,-0.21446 50.27083,50.27083 0 0 1 0.220657,-0.21342 50.27083,50.27083 0 0 1 0.221694,-0.211867 50.27083,50.27083 0 0 1 0.222724,-0.21033 50.27083,50.27083 0 0 1 0.224277,-0.209287 50.27083,50.27083 0 0 1 0.225824,-0.20774 50.27083,50.27083 0 0 1 0.226862,-0.20618 50.27083,50.27083 0 0 1 0.22789,-0.205157 50.27083,50.27083 0 0 1 0.22944,-0.20309 50.27083,50.27083 0 0 1 0.230997,-0.202567 50.27083,50.27083 0 0 1 0.23151,-0.2005 50.27083,50.27083 0 0 1 0.23306,-0.19948 50.27083,50.27083 0 0 1 0.234607,-0.197917 50.27083,50.27083 0 0 1 0.23513,-0.19637 50.27083,50.27083 0 0 1 0.236667,-0.19533 50.27083,50.27083 0 0 1 0.23772,-0.193267 50.27083,50.27083 0 0 1 0.239257,-0.19224 50.27083,50.27083 0 0 1 0.24029,-0.19069 50.27083,50.27083 0 0 1 0.241327,-0.189127 50.27083,50.27083 0 0 1 0.24236,-0.18759 50.27083,50.27083 0 0 1 0.24392,-0.186547 50.27083,50.27083 0 0 1 0.244427,-0.18448 50.27083,50.27083 0 0 1 0.24597,-0.18346 50.27083,50.27083 0 0 1 0.247017,-0.181897 50.27083,50.27083 0 0 1 0.24805,-0.17983 50.27083,50.27083 0 0 1 0.249077,-0.1788 50.27083,50.27083 0 0 1 0.25063,-0.177247 50.27083,50.27083 0 0 1 0.251137,-0.1757 50.27083,50.27083 0 0 1 0.2527,-0.17415 50.27083,50.27083 0 0 1 0.253217,-0.172597 50.27083,50.27083 0 0 1 0.25476,-0.17105 50.27083,50.27083 0 0 1 0.255277,-0.1695 50.27083,50.27083 0 0 1 0.25683,-0.167937 50.27083,50.27083 0 0 1 0.257867,-0.1663997 50.27083,50.27083 0 0 1 0.25838,-0.16485 50.27083,50.27083 0 0 1 0.259937,-0.1633 50.27083,50.27083 0 0 1 0.16433,-0.1017967 50.27083,50.27083 0 0 0 -26.458295,-7.5261138 50.27083,50.27083 0 0 0 -0.149344,0 z"
       style="fill:none;stroke:#000000;stroke-width:2.11667;stroke-miterlimit:4;stroke-dasharray:none;stroke-opacity:1"
       id="path869" />
    <path
       id="path872"
       style="fill:none;stroke:#000000;stroke-width:2.11667;stroke-miterlimit:4;stroke-dasharray:none;stroke-opacity:1"
       d="m 87.009915,94.90465 a 50.27083,50.27083 0 0 0 0.16433,-0.1018 50.27083,50.27083 0 0 0 0.259927,-0.163297 50.27083,50.27083 0 0 0 0.25838,-0.16485 50.27083,50.27083 0 0 0 0.257867,-0.16639 50.27083,50.27083 0 0 0 0.25683,-0.167947 50.27083,50.27083 0 0 0 0.255277,-0.1695 50.27083,50.27083 0 0 0 0.25476,-0.17105 50.27083,50.27083 0 0 0 0.253217,-0.172597 50.27083,50.27083 0 0 0 0.2527,-0.17415 50.27083,50.27083 0 0 0 0.251137,-0.1757 50.27083,50.27083 0 0 0 0.25064,-0.177247 50.27083,50.27083 0 0 0 0.249067,-0.1788 50.27083,50.27083 0 0 0 0.24805,-0.17983 50.27083,50.27083 0 0 0 0.24702,-0.181897 50.27083,50.27083 0 0 0 0.245967,-0.18346 50.27083,50.27083 0 0 0 0.24443,-0.18448 50.27083,50.27083 0 0 0 0.243917,-0.186547 50.27083,50.27083 0 0 0 0.24236,-0.18759 50.27083,50.27083 0 0 0 0.241327,-0.18913 50.27083,50.27083 0 0 0 0.2403,-0.190687 50.27083,50.27083 0 0 0 0.239257,-0.19224 50.27083,50.27083 0 0 0 0.23771,-0.19327 50.27083,50.27083 0 0 0 0.236677,-0.195327 50.27083,50.27083 0 0 0 0.23512,-0.19637 50.27083,50.27083 0 0 0 0.23461,-0.197917 50.27083,50.27083 0 0 0 0.233067,-0.19948 50.27083,50.27083 0 0 0 0.23151,-0.2005 50.27083,50.27083 0 0 0 0.230987,-0.202567 50.27083,50.27083 0 0 0 0.22944,-0.20309 50.27083,50.27083 0 0 0 0.227887,-0.20516 50.27083,50.27083 0 0 0 0.22687,-0.206177 50.27083,50.27083 0 0 0 0.225817,-0.20774 50.27083,50.27083 0 0 0 0.22428,-0.209287 50.27083,50.27083 0 0 0 0.22272,-0.21033 50.27083,50.27083 0 0 0 0.221697,-0.21187 50.27083,50.27083 0 0 0 0.22065,-0.213417 50.27083,50.27083 0 0 0 0.219107,-0.21446 50.27083,50.27083 0 0 0 0.21807,-0.216007 50.27083,50.27083 0 0 0 0.21653,-0.21704 50.27083,50.27083 0 0 0 0.214967,-0.21859 50.27083,50.27083 0 0 0 0.21395,-0.219617 50.27083,50.27083 0 0 0 0.212377,-0.22118 50.27083,50.27083 0 0 0 0.21136,-0.222207 50.27083,50.27083 0 0 0 0.20981,-0.22376 50.27083,50.27083 0 0 0 0.208247,-0.224787 50.27083,50.27083 0 0 0 0.20723,-0.22634 50.27083,50.27083 0 0 0 0.205667,-0.22738 50.27083,50.27083 0 0 0 0.20412,-0.228927 50.27083,50.27083 0 0 0 0.20309,-0.22996 50.27083,50.27083 0 0 0 0.201527,-0.230987 50.27083,50.27083 0 0 0 0.19999,-0.23254 50.27083,50.27083 0 0 0 0.198437,-0.233577 50.27083,50.27083 0 0 0 0.19741,-0.23513 50.27083,50.27083 0 0 0 0.19585,-0.23616 50.27083,50.27083 0 0 0 0.194297,-0.237197 50.27083,50.27083 0 0 0 0.19275,-0.23822 50.27083,50.27083 0 0 0 0.19172,-0.239777 50.27083,50.27083 0 0 0 0.189657,-0.24081 50.27083,50.27083 0 0 0 0.18862,-0.241847 50.27083,50.27083 0 0 0 0.18706,-0.24288 50.27083,50.27083 0 0 0 0.18552,-0.244427 50.27083,50.27083 0 0 0 0.18397,-0.24494 50.27083,50.27083 0 0 0 0.18242,-0.246497 50.27083,50.27083 0 0 0 0.18139,-0.24753 50.27083,50.27083 0 0 0 0.17931,-0.248557 50.27083,50.27083 0 0 0 0.17777,-0.25012 50.27083,50.27083 0 0 0 0.17673,-0.25063 50.27083,50.27083 0 0 0 0.17467,-0.252177 50.27083,50.27083 0 0 0 0.17363,-0.2527 50.27083,50.27083 0 0 0 0.17157,-0.254247 50.27083,50.27083 0 0 0 0.17053,-0.25476 50.27083,50.27083 0 0 0 0.16846,-0.256317 50.27083,50.27083 0 0 0 0.16744,-0.25683 50.27083,50.27083 0 0 0 0.16536,-0.258377 50.27083,50.27083 0 0 0 0.16433,-0.2589 50.27083,50.27083 0 0 0 0.16227,-0.260447 50.27083,50.27083 0 0 0 0.16071,-0.26096 50.27083,50.27083 0 0 0 0.15968,-0.261997 50.27083,50.27083 0 0 0 0.15761,-0.26304 50.27083,50.27083 0 0 0 0.15606,-0.264057 50.27083,50.27083 0 0 0 0.154,-0.2651 50.27083,50.27083 0 0 0 0.15296,-0.265617 50.27083,50.27083 0 0 0 0.15141,-0.26717 50.27083,50.27083 0 0 0 0.14935,-0.267677 50.27083,50.27083 0 0 0 0.14779,-0.26872 50.27083,50.27083 0 0 0 0.14625,-0.269227 50.27083,50.27083 0 0 0 0.14469,-0.27027 50.27083,50.27083 0 0 0 0.14315,-0.271297 50.27083,50.27083 0 0 0 0.14107,-0.27234 50.27083,50.27083 0 0 0 0.14005,-0.273357 50.27083,50.27083 0 0 0 0.13797,-0.27337 50.27083,50.27083 0 0 0 0.13591,-0.274917 50.27083,50.27083 0 0 0 0.13488,-0.27544 50.27083,50.27083 0 0 0 0.13281,-0.276467 50.27083,50.27083 0 0 0 0.13125,-0.276977 50.27083,50.27083 0 0 0 0.12971,-0.27802 50.27083,50.27083 0 0 0 0.12764,-0.279047 50.27083,50.27083 0 0 0 0.12609,-0.27957 50.27083,50.27083 0 0 0 0.12454,-0.280087 50.27083,50.27083 0 0 0 0.12299,-0.28112 50.27083,50.27083 0 0 0 0.12093,-0.281637 50.27083,50.27083 0 0 0 0.11937,-0.28267 50.27083,50.27083 0 0 0 0.1173,-0.283177 50.27083,50.27083 0 0 0 0.11627,-0.28371 50.27083,50.27083 0 0 0 0.11369,-0.284737 50.27083,50.27083 0 0 0 0.11266,-0.28576 50.27083,50.27083 0 0 0 0.11059,-0.285767 50.27083,50.27083 0 0 0 0.10903,-0.28681 50.27083,50.27083 0 0 0 0.10697,-0.287317 50.27083,50.27083 0 0 0 0.10542,-0.287837 50.27083,50.27083 0 0 0 0.10387,-0.28887 50.27083,50.27083 0 0 0 0.10181,-0.288867 50.27083,50.27083 0 0 0 0.0997,-0.28991 50.27083,50.27083 0 0 0 0.0987,-0.290927 50.27083,50.27083 0 0 0 0.0961,-0.29094 50.27083,50.27083 0 0 0 0.0951,-0.291457 50.27083,50.27083 0 0 0 0.093,-0.29249 50.27083,50.27083 0 0 0 0.0909,-0.292477 50.27083,50.27083 0 0 0 0.0894,-0.29353 50.27083,50.27083 0 0 0 0.0878,-0.294027 50.27083,50.27083 0 0 0 0.0858,-0.294037 50.27083,50.27083 0 0 0 0.0842,-0.29508 50.27083,50.27083 0 0 0 0.0822,-0.295577 50.27083,50.27083 0 0 0 0.0801,-0.29611 50.27083,50.27083 0 0 0 0.0791,-0.296107 50.27083,50.27083 0 0 0 0.0765,-0.29714 50.27083,50.27083 0 0 0 0.0749,-0.297137 50.27083,50.27083 0 0 0 0.0734,-0.298167 50.27083,50.27083 0 0 0 0.0713,-0.29817 50.27083,50.27083 0 0 0 0.0698,-0.298687 50.27083,50.27083 0 0 0 0.0677,-0.29869 50.27083,50.27083 0 0 0 0.0656,-0.299727 50.27083,50.27083 0 0 0 0.0641,-0.29972 50.27083,50.27083 0 0 0 0.0625,-0.300757 50.27083,50.27083 0 0 0 0.0605,-0.30024 50.27083,50.27083 0 0 0 0.0584,-0.301267 50.27083,50.27083 0 0 0 0.0568,-0.301267 50.27083,50.27083 0 0 0 0.0548,-0.30179 50.27083,50.27083 0 0 0 0.0532,-0.302307 50.27083,50.27083 0 0 0 0.0512,-0.30231 50.27083,50.27083 0 0 0 0.0491,-0.302297 50.27083,50.27083 0 0 0 0.0476,-0.30334 50.27083,50.27083 0 0 0 0.0455,-0.302827 50.27083,50.27083 0 0 0 0.0439,-0.303857 50.27083,50.27083 0 0 0 0.0419,-0.30385 50.27083,50.27083 0 0 0 0.0403,-0.303857 50.27083,50.27083 0 0 0 0.0382,-0.30438 50.27083,50.27083 0 0 0 0.0367,-0.304367 50.27083,50.27083 0 0 0 0.0341,-0.30489 50.27083,50.27083 0 0 0 0.0331,-0.304887 50.27083,50.27083 0 0 0 0.0305,-0.304887 50.27083,50.27083 0 0 0 0.0289,-0.30541 50.27083,50.27083 0 0 0 0.0274,-0.305407 50.27083,50.27083 0 0 0 0.0253,-0.30592 50.27083,50.27083 0 0 0 0.0233,-0.305407 50.27083,50.27083 0 0 0 0.0212,-0.305917 50.27083,50.27083 0 0 0 0.0196,-0.30645 50.27083,50.27083 0 0 0 0.0181,-0.305917 50.27083,50.27083 0 0 0 0.0155,-0.30644 50.27083,50.27083 0 0 0 0.0145,-0.306437 50.27083,50.27083 0 0 0 0.0119,-0.30644 50.27083,50.27083 0 0 0 0.0103,-0.306447 50.27083,50.27083 0 0 0 0.008,-0.306437 50.27083,50.27083 0 0 0 0.007,-0.30644 50.27083,50.27083 0 0 0 0.005,-0.306957 50.27083,50.27083 0 0 0 0.003,-0.30644 50.27083,50.27083 0 0 0 0.001,-0.306957 50.27083,50.27083 0 0 0 0,-0.14882 50.27083,50.27083 0 0 0 -0.002,-0.306957 50.27083,50.27083 0 0 0 -0.004,-0.30644 50.27083,50.27083 0 0 0 -0.006,-0.306437 50.27083,50.27083 0 0 0 -0.007,-0.306957 50.27083,50.27083 0 0 0 -0.009,-0.30644 50.27083,50.27083 0 0 0 -0.0114,-0.306437 50.27083,50.27083 0 0 0 -0.0129,-0.30645 50.27083,50.27083 0 0 0 -0.015,-0.306437 50.27083,50.27083 0 0 0 -0.017,-0.30592 50.27083,50.27083 0 0 0 -0.0186,-0.306437 50.27083,50.27083 0 0 0 -0.0202,-0.305927 50.27083,50.27083 0 0 0 -0.0227,-0.30592 50.27083,50.27083 0 0 0 -0.0243,-0.305407 50.27083,50.27083 0 0 0 -0.0258,-0.30541 50.27083,50.27083 0 0 0 -0.0284,-0.305397 50.27083,50.27083 0 0 0 -0.0295,-0.30541 50.27083,50.27083 0 0 0 -0.032,-0.304887 50.27083,50.27083 0 0 0 -0.0336,-0.304887 50.27083,50.27083 0 0 0 -0.0352,-0.30489 50.27083,50.27083 0 0 0 -0.0372,-0.304377 50.27083,50.27083 0 0 0 -0.0393,-0.30386 50.27083,50.27083 0 0 0 -0.0413,-0.303847 50.27083,50.27083 0 0 0 -0.0429,-0.30386 50.27083,50.27083 0 0 0 -0.0444,-0.303337 50.27083,50.27083 0 0 0 -0.0465,-0.303337 50.27083,50.27083 0 0 0 -0.0486,-0.30283 50.27083,50.27083 0 0 0 -0.0501,-0.302297 50.27083,50.27083 0 0 0 -0.0522,-0.30231 50.27083,50.27083 0 0 0 -0.0538,-0.301787 50.27083,50.27083 0 0 0 -0.0558,-0.30179 50.27083,50.27083 0 0 0 -0.0579,-0.301267 50.27083,50.27083 0 0 0 -0.0594,-0.300757 50.27083,50.27083 0 0 0 -0.061,-0.30024 50.27083,50.27083 0 0 0 -0.0636,-0.300237 50.27083,50.27083 0 0 0 -0.0646,-0.29972 50.27083,50.27083 0 0 0 -0.0672,-0.299207 50.27083,50.27083 0 0 0 -0.0682,-0.29921 50.27083,50.27083 0 0 0 -0.0708,-0.298167 50.27083,50.27083 0 0 0 -0.0718,-0.298167 50.27083,50.27083 0 0 0 -0.0744,-0.29766 50.27083,50.27083 0 0 0 -0.076,-0.297137 50.27083,50.27083 0 0 0 -0.0775,-0.29662 50.27083,50.27083 0 0 0 -0.0796,-0.296107 50.27083,50.27083 0 0 0 -0.0811,-0.29559 50.27083,50.27083 0 0 0 -0.0832,-0.295587 50.27083,50.27083 0 0 0 -0.0848,-0.29455 50.27083,50.27083 0 0 0 -0.0868,-0.294037 50.27083,50.27083 0 0 0 -0.0884,-0.293517 50.27083,50.27083 0 0 0 -0.0904,-0.29353 50.27083,50.27083 0 0 0 -0.092,-0.292477 50.27083,50.27083 0 0 0 -0.094,-0.29198 50.27083,50.27083 0 0 0 -0.0956,-0.290937 50.27083,50.27083 0 0 0 -0.0977,-0.29093 50.27083,50.27083 0 0 0 -0.0987,-0.290417 50.27083,50.27083 0 0 0 -0.10128,-0.28939 50.27083,50.27083 0 0 0 -0.10284,-0.288867 50.27083,50.27083 0 0 0 -0.10439,-0.288357 50.27083,50.27083 0 0 0 -0.10593,-0.28784 50.27083,50.27083 0 0 0 -0.10801,-0.286797 50.27083,50.27083 0 0 0 -0.11007,-0.28681 50.27083,50.27083 0 0 0 -0.1111,-0.285247 50.27083,50.27083 0 0 0 -0.11369,-0.28525 50.27083,50.27083 0 0 0 -0.11472,-0.284217 50.27083,50.27083 0 0 0 -0.11679,-0.28371 50.27083,50.27083 0 0 0 -0.11834,-0.282667 50.27083,50.27083 0 0 0 -0.11989,-0.28215 50.27083,50.27083 0 0 0 -0.12195,-0.281637 50.27083,50.27083 0 0 0 -0.12351,-0.2806 50.27083,50.27083 0 0 0 -0.12558,-0.280087 50.27083,50.27083 0 0 0 -0.12712,-0.279047 50.27083,50.27083 0 0 0 -0.12867,-0.27853 50.27083,50.27083 0 0 0 -0.13023,-0.277507 50.27083,50.27083 0 0 0 -0.13229,-0.27647 50.27083,50.27083 0 0 0 -0.13333,-0.275947 50.27083,50.27083 0 0 0 -0.1359,-0.27543 50.27083,50.27083 0 0 0 -0.13695,-0.274397 50.27083,50.27083 0 0 0 -0.13849,-0.27337 50.27083,50.27083 0 0 0 -0.14056,-0.272337 50.27083,50.27083 0 0 0 -0.14211,-0.27182 50.27083,50.27083 0 0 0 -0.14418,-0.271297 50.27083,50.27083 0 0 0 -0.14521,-0.26975 50.27083,50.27083 0 0 0 -0.14728,-0.269227 50.27083,50.27083 0 0 0 -0.14831,-0.2682 50.27083,50.27083 0 0 0 -0.15037,-0.267167 50.27083,50.27083 0 0 0 -0.15193,-0.26665 50.27083,50.27083 0 0 0 -0.154,-0.265097 50.27083,50.27083 0 0 0 -0.15503,-0.26458 50.27083,50.27083 0 0 0 -0.15658,-0.263557 50.27083,50.27083 0 0 0 -0.15865,-0.26251 50.27083,50.27083 0 0 0 -0.16019,-0.261477 50.27083,50.27083 0 0 0 -0.16123,-0.26097 50.27083,50.27083 0 0 0 -0.1633,-0.259407 50.27083,50.27083 0 0 0 -0.16485,-0.2589 50.27083,50.27083 0 0 0 -0.1664,-0.257347 50.27083,50.27083 0 0 0 -0.16795,-0.25684 50.27083,50.27083 0 0 0 -0.16949,-0.255277 50.27083,50.27083 0 0 0 -0.17105,-0.25476 50.27083,50.27083 0 0 0 -0.1726,-0.253727 50.27083,50.27083 0 0 0 -0.17415,-0.25218 50.27083,50.27083 0 0 0 -0.1757,-0.251147 50.27083,50.27083 0 0 0 -0.17725,-0.25063 50.27083,50.27083 0 0 0 -0.1788,-0.249077 50.27083,50.27083 0 0 0 -0.17984,-0.24805 50.27083,50.27083 0 0 0 -0.1819,-0.24701 50.27083,50.27083 0 0 0 -0.18345,-0.245977 50.27083,50.27083 0 0 0 -0.18448,-0.24495 50.27083,50.27083 0 0 0 -0.18655,-0.243387 50.27083,50.27083 0 0 0 -0.18759,-0.24237 50.27083,50.27083 0 0 0 -0.18914,-0.241837 50.27083,50.27083 0 0 0 -0.190677,-0.23978 50.27083,50.27083 0 0 0 -0.19224,-0.239257 50.27083,50.27083 0 0 0 -0.193777,-0.23771 50.27083,50.27083 0 0 0 -0.19482,-0.236677 50.27083,50.27083 0 0 0 -0.19638,-0.23565 50.27083,50.27083 0 0 0 -0.197917,-0.23409 50.27083,50.27083 0 0 0 -0.19947,-0.233057 50.27083,50.27083 0 0 0 -0.2005,-0.23203 50.27083,50.27083 0 0 0 -0.202567,-0.230467 50.27083,50.27083 0 0 0 -0.20361,-0.22945 50.27083,50.27083 0 0 0 -0.204637,-0.227887 50.27083,50.27083 0 0 0 -0.2067,-0.22686 50.27083,50.27083 0 0 0 -0.20722,-0.22583 50.27083,50.27083 0 0 0 -0.209297,-0.224267 50.27083,50.27083 0 0 0 -0.21032,-0.22324 50.27083,50.27083 0 0 0 -0.211867,-0.221697 50.27083,50.27083 0 0 0 -0.21342,-0.22014 50.27083,50.27083 0 0 0 -0.21446,-0.219617 50.27083,50.27083 0 0 0 -0.216007,-0.21756 50.27083,50.27083 0 0 0 -0.21704,-0.21653 50.27083,50.27083 0 0 0 -0.218587,-0.215487 50.27083,50.27083 0 0 0 -0.21963,-0.21342 50.27083,50.27083 0 0 0 -0.22117,-0.212907 50.27083,50.27083 0 0 0 -0.222207,-0.21084 50.27083,50.27083 0 0 0 -0.22376,-0.2098 50.27083,50.27083 0 0 0 -0.224787,-0.208777 50.27083,50.27083 0 0 0 -0.22634,-0.2067 50.27083,50.27083 0 0 0 -0.227377,-0.205667 50.27083,50.27083 0 0 0 -0.22893,-0.20464 50.27083,50.27083 0 0 0 -0.22996,-0.20257 50.27083,50.27083 0 0 0 -0.230987,-0.201537 50.27083,50.27083 0 0 0 -0.23254,-0.19999 50.27083,50.27083 0 0 0 -0.233577,-0.19895 50.27083,50.27083 0 0 0 -0.23513,-0.196887 50.27083,50.27083 0 0 0 -0.236157,-0.19586 50.27083,50.27083 0 0 0 -0.2372,-0.194297 50.27083,50.27083 0 0 0 -0.238217,-0.19327 50.27083,50.27083 0 0 0 -0.23978,-0.1912 50.27083,50.27083 0 0 0 -0.24082,-0.190167 50.27083,50.27083 0 0 0 -0.241837,-0.1881 50.27083,50.27083 0 0 0 -0.24288,-0.18707 50.27083,50.27083 0 0 0 -0.244427,-0.185517 50.27083,50.27083 0 0 0 -0.24495,-0.18397 50.27083,50.27083 0 0 0 -0.246487,-0.18293 50.27083,50.27083 0 0 0 -0.24753,-0.180867 50.27083,50.27083 0 0 0 -0.248567,-0.17932 50.27083,50.27083 0 0 0 -0.25011,-0.17828 50.27083,50.27083 0 0 0 -0.250627,-0.176217 50.27083,50.27083 0 0 0 -0.25218,-0.17518 50.27083,50.27083 0 0 0 -0.252697,-0.17312 50.27083,50.27083 0 0 0 -0.25425,-0.172077 50.27083,50.27083 0 0 0 -0.254757,-0.17002 50.27083,50.27083 0 0 0 -0.25632,-0.16898 50.27083,50.27083 0 0 0 -0.256827,-0.1669067 50.27083,50.27083 0 0 0 -0.25838,-0.16588 50.27083,50.27083 0 0 0 -0.2589,-0.16382 50.27083,50.27083 0 0 0 -0.260447,-0.1622567 50.27083,50.27083 0 0 0 -0.0377,-0.0233 A 50.27083,50.27083 0 0 0 63.198101,52.160173 50.27083,50.27083 0 0 0 87.010565,94.90461 Z" />
    <path
       id="path874"
       style="fill:#cccccc;stroke:#000000;stroke-width:2.11667;stroke-miterlimit:4;stroke-dasharray:none;stroke-opacity:1"
       d="M 113.61751,102.43078 A 50.27083,50.27083 0 0 0 163.739,52.160213 50.27083,50.27083 0 0 0 113.46817,1.8896728 50.27083,50.27083 0 0 0 87.009915,9.4163066 a 50.27083,50.27083 0 0 1 0.0377,0.0233 50.27083,50.27083 0 0 1 0.260447,0.1622667 50.27083,50.27083 0 0 1 0.2589,0.16381 50.27083,50.27083 0 0 1 0.25838,0.16588 50.27083,50.27083 0 0 1 0.256827,0.1669167 50.27083,50.27083 0 0 1 0.25632,0.16898 50.27083,50.27083 0 0 1 0.254757,0.17001 50.27083,50.27083 0 0 1 0.25425,0.172087 50.27083,50.27083 0 0 1 0.252697,0.17311 50.27083,50.27083 0 0 1 0.25218,0.17519 50.27083,50.27083 0 0 1 0.250627,0.176207 50.27083,50.27083 0 0 1 0.25011,0.17828 50.27083,50.27083 0 0 1 0.248557,0.17932 50.27083,50.27083 0 0 1 0.24754,0.180867 50.27083,50.27083 0 0 1 0.246487,0.18294 50.27083,50.27083 0 0 1 0.24495,0.18396 50.27083,50.27083 0 0 1 0.244427,0.185517 50.27083,50.27083 0 0 1 0.24288,0.18707 50.27083,50.27083 0 0 1 0.241837,0.1881 50.27083,50.27083 0 0 1 0.24082,0.190167 50.27083,50.27083 0 0 1 0.23977,0.1912 50.27083,50.27083 0 0 1 0.238227,0.19328 50.27083,50.27083 0 0 1 0.2372,0.194297 50.27083,50.27083 0 0 1 0.236157,0.19585 50.27083,50.27083 0 0 1 0.23513,0.196887 50.27083,50.27083 0 0 1 0.233567,0.19895 50.27083,50.27083 0 0 1 0.23255,0.19999 50.27083,50.27083 0 0 1 0.230987,0.201537 50.27083,50.27083 0 0 1 0.22996,0.20257 50.27083,50.27083 0 0 1 0.22893,0.20464 50.27083,50.27083 0 0 1 0.227367,0.205667 50.27083,50.27083 0 0 1 0.22635,0.20671 50.27083,50.27083 0 0 1 0.224787,0.208767 50.27083,50.27083 0 0 1 0.22376,0.2098 50.27083,50.27083 0 0 1 0.222207,0.21085 50.27083,50.27083 0 0 1 0.22117,0.212897 50.27083,50.27083 0 0 1 0.21963,0.21343 50.27083,50.27083 0 0 1 0.218587,0.215487 50.27083,50.27083 0 0 1 0.21704,0.21652 50.27083,50.27083 0 0 1 0.216007,0.21756 50.27083,50.27083 0 0 1 0.21445,0.219617 50.27083,50.27083 0 0 1 0.21343,0.22014 50.27083,50.27083 0 0 1 0.211867,0.221697 50.27083,50.27083 0 0 1 0.21032,0.22324 50.27083,50.27083 0 0 1 0.209287,0.224267 50.27083,50.27083 0 0 1 0.20723,0.22583 50.27083,50.27083 0 0 1 0.2067,0.22686 50.27083,50.27083 0 0 1 0.204637,0.227887 50.27083,50.27083 0 0 1 0.20361,0.22945 50.27083,50.27083 0 0 1 0.202567,0.230467 50.27083,50.27083 0 0 1 0.2005,0.23203 50.27083,50.27083 0 0 1 0.19947,0.233057 50.27083,50.27083 0 0 1 0.197917,0.2341 50.27083,50.27083 0 0 1 0.19638,0.23564 50.27083,50.27083 0 0 1 0.19482,0.236677 50.27083,50.27083 0 0 1 0.193777,0.23771 50.27083,50.27083 0 0 1 0.19224,0.239257 50.27083,50.27083 0 0 1 0.190677,0.23978 50.27083,50.27083 0 0 1 0.18914,0.241847 50.27083,50.27083 0 0 1 0.18758,0.24236 50.27083,50.27083 0 0 1 0.18656,0.243397 50.27083,50.27083 0 0 1 0.18448,0.24494 50.27083,50.27083 0 0 1 0.18345,0.245977 50.27083,50.27083 0 0 1 0.1819,0.24701 50.27083,50.27083 0 0 1 0.17984,0.24805 50.27083,50.27083 0 0 1 0.1788,0.249077 50.27083,50.27083 0 0 1 0.17725,0.25063 50.27083,50.27083 0 0 1 0.1757,0.251147 50.27083,50.27083 0 0 1 0.17415,0.25218 50.27083,50.27083 0 0 1 0.1726,0.253727 50.27083,50.27083 0 0 1 0.17105,0.25477 50.27083,50.27083 0 0 1 0.16949,0.255277 50.27083,50.27083 0 0 1 0.16795,0.25683 50.27083,50.27083 0 0 1 0.1664,0.257347 50.27083,50.27083 0 0 1 0.16485,0.2589 50.27083,50.27083 0 0 1 0.1633,0.259407 50.27083,50.27083 0 0 1 0.16123,0.26097 50.27083,50.27083 0 0 1 0.16019,0.261477 50.27083,50.27083 0 0 1 0.15865,0.26252 50.27083,50.27083 0 0 1 0.15658,0.263547 50.27083,50.27083 0 0 1 0.15503,0.26458 50.27083,50.27083 0 0 1 0.154,0.265097 50.27083,50.27083 0 0 1 0.15192,0.26665 50.27083,50.27083 0 0 1 0.15038,0.267167 50.27083,50.27083 0 0 1 0.14831,0.2682 50.27083,50.27083 0 0 1 0.14728,0.269227 50.27083,50.27083 0 0 1 0.14521,0.26975 50.27083,50.27083 0 0 1 0.14418,0.271307 50.27083,50.27083 0 0 1 0.14211,0.27182 50.27083,50.27083 0 0 1 0.14056,0.272327 50.27083,50.27083 0 0 1 0.13849,0.27337 50.27083,50.27083 0 0 1 0.13695,0.274397 50.27083,50.27083 0 0 1 0.1359,0.27543 50.27083,50.27083 0 0 1 0.13333,0.275957 50.27083,50.27083 0 0 1 0.13229,0.27647 50.27083,50.27083 0 0 1 0.13023,0.277497 50.27083,50.27083 0 0 1 0.12867,0.27853 50.27083,50.27083 0 0 1 0.12712,0.279057 50.27083,50.27083 0 0 1 0.12558,0.280077 50.27083,50.27083 0 0 1 0.1235,0.28061 50.27083,50.27083 0 0 1 0.12196,0.281627 50.27083,50.27083 0 0 1 0.11989,0.28216 50.27083,50.27083 0 0 1 0.11834,0.282667 50.27083,50.27083 0 0 1 0.11679,0.2837 50.27083,50.27083 0 0 1 0.11472,0.284217 50.27083,50.27083 0 0 1 0.11369,0.28525 50.27083,50.27083 0 0 1 0.1111,0.285257 50.27083,50.27083 0 0 1 0.11007,0.2868 50.27083,50.27083 0 0 1 0.10801,0.286807 50.27083,50.27083 0 0 1 0.10593,0.28783 50.27083,50.27083 0 0 1 0.10439,0.288357 50.27083,50.27083 0 0 1 0.10284,0.288867 50.27083,50.27083 0 0 1 0.10128,0.28939 50.27083,50.27083 0 0 1 0.0987,0.290417 50.27083,50.27083 0 0 1 0.0977,0.29094 50.27083,50.27083 0 0 1 0.0956,0.290937 50.27083,50.27083 0 0 1 0.0941,0.29197 50.27083,50.27083 0 0 1 0.092,0.292487 50.27083,50.27083 0 0 1 0.0904,0.29352 50.27083,50.27083 0 0 1 0.0884,0.293517 50.27083,50.27083 0 0 1 0.0868,0.294037 50.27083,50.27083 0 0 1 0.0847,0.29455 50.27083,50.27083 0 0 1 0.0832,0.295587 50.27083,50.27083 0 0 1 0.0811,0.29559 50.27083,50.27083 0 0 1 0.0796,0.296107 50.27083,50.27083 0 0 1 0.0775,0.29662 50.27083,50.27083 0 0 1 0.076,0.297137 50.27083,50.27083 0 0 1 0.0744,0.29766 50.27083,50.27083 0 0 1 0.0718,0.298167 50.27083,50.27083 0 0 1 0.0708,0.298167 50.27083,50.27083 0 0 1 0.0682,0.29921 50.27083,50.27083 0 0 1 0.0672,0.299207 50.27083,50.27083 0 0 1 0.0646,0.29972 50.27083,50.27083 0 0 1 0.0636,0.300237 50.27083,50.27083 0 0 1 0.061,0.30024 50.27083,50.27083 0 0 1 0.0594,0.300757 50.27083,50.27083 0 0 1 0.0579,0.301267 50.27083,50.27083 0 0 1 0.0558,0.30179 50.27083,50.27083 0 0 1 0.0538,0.301787 50.27083,50.27083 0 0 1 0.0522,0.30231 50.27083,50.27083 0 0 1 0.0501,0.302307 50.27083,50.27083 0 0 1 0.0486,0.30282 50.27083,50.27083 0 0 1 0.0465,0.303337 50.27083,50.27083 0 0 1 0.0444,0.303337 50.27083,50.27083 0 0 1 0.0429,0.30386 50.27083,50.27083 0 0 1 0.0413,0.303857 50.27083,50.27083 0 0 1 0.0393,0.30385 50.27083,50.27083 0 0 1 0.0372,0.304377 50.27083,50.27083 0 0 1 0.0351,0.30489 50.27083,50.27083 0 0 1 0.0336,0.304887 50.27083,50.27083 0 0 1 0.032,0.304887 50.27083,50.27083 0 0 1 0.0295,0.30541 50.27083,50.27083 0 0 1 0.0284,0.305397 50.27083,50.27083 0 0 1 0.0258,0.30541 50.27083,50.27083 0 0 1 0.0243,0.305407 50.27083,50.27083 0 0 1 0.0227,0.30593 50.27083,50.27083 0 0 1 0.0202,0.305917 50.27083,50.27083 0 0 1 0.0186,0.306437 50.27083,50.27083 0 0 1 0.017,0.30593 50.27083,50.27083 0 0 1 0.015,0.306437 50.27083,50.27083 0 0 1 0.0129,0.30644 50.27083,50.27083 0 0 1 0.0114,0.306437 50.27083,50.27083 0 0 1 0.009,0.30644 50.27083,50.27083 0 0 1 0.007,0.306957 50.27083,50.27083 0 0 1 0.006,0.306437 50.27083,50.27083 0 0 1 0.004,0.30644 50.27083,50.27083 0 0 1 0.002,0.306957 50.27083,50.27083 0 0 1 0,0.14883 50.27083,50.27083 0 0 1 -0.001,0.306957 50.27083,50.27083 0 0 1 -0.003,0.30644 50.27083,50.27083 0 0 1 -0.005,0.306957 50.27083,50.27083 0 0 1 -0.007,0.30644 50.27083,50.27083 0 0 1 -0.008,0.306437 50.27083,50.27083 0 0 1 -0.0103,0.306437 50.27083,50.27083 0 0 1 -0.0119,0.30644 50.27083,50.27083 0 0 1 -0.0145,0.306437 50.27083,50.27083 0 0 1 -0.0155,0.30644 50.27083,50.27083 0 0 1 -0.0181,0.305927 50.27083,50.27083 0 0 1 -0.0196,0.30644 50.27083,50.27083 0 0 1 -0.0212,0.305917 50.27083,50.27083 0 0 1 -0.0233,0.305407 50.27083,50.27083 0 0 1 -0.0253,0.30593 50.27083,50.27083 0 0 1 -0.0274,0.305397 50.27083,50.27083 0 0 1 -0.0289,0.30541 50.27083,50.27083 0 0 1 -0.0305,0.304887 50.27083,50.27083 0 0 1 -0.0331,0.304887 50.27083,50.27083 0 0 1 -0.0341,0.30489 50.27083,50.27083 0 0 1 -0.0367,0.304377 50.27083,50.27083 0 0 1 -0.0382,0.30437 50.27083,50.27083 0 0 1 -0.0403,0.303857 50.27083,50.27083 0 0 1 -0.0418,0.30386 50.27083,50.27083 0 0 1 -0.0439,0.303847 50.27083,50.27083 0 0 1 -0.0455,0.302827 50.27083,50.27083 0 0 1 -0.0476,0.30334 50.27083,50.27083 0 0 1 -0.0491,0.302307 50.27083,50.27083 0 0 1 -0.0512,0.3023 50.27083,50.27083 0 0 1 -0.0532,0.302307 50.27083,50.27083 0 0 1 -0.0548,0.30179 50.27083,50.27083 0 0 1 -0.0568,0.301267 50.27083,50.27083 0 0 1 -0.0584,0.301277 50.27083,50.27083 0 0 1 -0.0605,0.30024 50.27083,50.27083 0 0 1 -0.0625,0.300747 50.27083,50.27083 0 0 1 -0.0641,0.29973 50.27083,50.27083 0 0 1 -0.0656,0.299717 50.27083,50.27083 0 0 1 -0.0677,0.29869 50.27083,50.27083 0 0 1 -0.0698,0.298687 50.27083,50.27083 0 0 1 -0.0713,0.29817 50.27083,50.27083 0 0 1 -0.0734,0.298177 50.27083,50.27083 0 0 1 -0.0749,0.297137 50.27083,50.27083 0 0 1 -0.0765,0.29714 50.27083,50.27083 0 0 1 -0.0791,0.296097 50.27083,50.27083 0 0 1 -0.0801,0.29611 50.27083,50.27083 0 0 1 -0.0822,0.295577 50.27083,50.27083 0 0 1 -0.0842,0.29508 50.27083,50.27083 0 0 1 -0.0858,0.294037 50.27083,50.27083 0 0 1 -0.0879,0.294027 50.27083,50.27083 0 0 1 -0.0894,0.29353 50.27083,50.27083 0 0 1 -0.091,0.292487 50.27083,50.27083 0 0 1 -0.093,0.29249 50.27083,50.27083 0 0 1 -0.0951,0.291447 50.27083,50.27083 0 0 1 -0.0961,0.29094 50.27083,50.27083 0 0 1 -0.0987,0.290937 50.27083,50.27083 0 0 1 -0.0997,0.2899 50.27083,50.27083 0 0 1 -0.1018,0.288867 50.27083,50.27083 0 0 1 -0.10387,0.28888 50.27083,50.27083 0 0 1 -0.10542,0.287827 50.27083,50.27083 0 0 1 -0.10697,0.287317 50.27083,50.27083 0 0 1 -0.10904,0.28681 50.27083,50.27083 0 0 1 -0.11058,0.285767 50.27083,50.27083 0 0 1 -0.11266,0.28577 50.27083,50.27083 0 0 1 -0.11369,0.284737 50.27083,50.27083 0 0 1 -0.11627,0.2837 50.27083,50.27083 0 0 1 -0.1173,0.283187 50.27083,50.27083 0 0 1 -0.11938,0.28267 50.27083,50.27083 0 0 1 -0.12092,0.281627 50.27083,50.27083 0 0 1 -0.12299,0.28112 50.27083,50.27083 0 0 1 -0.12454,0.280087 50.27083,50.27083 0 0 1 -0.12609,0.27957 50.27083,50.27083 0 0 1 -0.12764,0.279047 50.27083,50.27083 0 0 1 -0.12971,0.27802 50.27083,50.27083 0 0 1 -0.13126,0.276977 50.27083,50.27083 0 0 1 -0.1328,0.276477 50.27083,50.27083 0 0 1 -0.13488,0.27543 50.27083,50.27083 0 0 1 -0.13591,0.274917 50.27083,50.27083 0 0 1 -0.13798,0.27337 50.27083,50.27083 0 0 1 -0.14004,0.273367 50.27083,50.27083 0 0 1 -0.14108,0.27233 50.27083,50.27083 0 0 1 -0.14314,0.271297 50.27083,50.27083 0 0 1 -0.14469,0.27027 50.27083,50.27083 0 0 1 -0.14625,0.269227 50.27083,50.27083 0 0 1 -0.14779,0.26872 50.27083,50.27083 0 0 1 -0.14935,0.267677 50.27083,50.27083 0 0 1 -0.15141,0.26717 50.27083,50.27083 0 0 1 -0.15296,0.265617 50.27083,50.27083 0 0 1 -0.154,0.2651 50.27083,50.27083 0 0 1 -0.15606,0.264067 50.27083,50.27083 0 0 1 -0.15761,0.26303 50.27083,50.27083 0 0 1 -0.15968,0.261997 50.27083,50.27083 0 0 1 -0.16071,0.26096 50.27083,50.27083 0 0 1 -0.16227,0.260447 50.27083,50.27083 0 0 1 -0.16433,0.2589 50.27083,50.27083 0 0 1 -0.16537,0.258377 50.27083,50.27083 0 0 1 -0.16743,0.25684 50.27083,50.27083 0 0 1 -0.16846,0.256307 50.27083,50.27083 0 0 1 -0.17053,0.25477 50.27083,50.27083 0 0 1 -0.17157,0.254237 50.27083,50.27083 0 0 1 -0.17363,0.2527 50.27083,50.27083 0 0 1 -0.17467,0.252177 50.27083,50.27083 0 0 1 -0.17673,0.25063 50.27083,50.27083 0 0 1 -0.17777,0.25012 50.27083,50.27083 0 0 1 -0.17932,0.248557 50.27083,50.27083 0 0 1 -0.18138,0.24753 50.27083,50.27083 0 0 1 -0.18242,0.246497 50.27083,50.27083 0 0 1 -0.18397,0.24494 50.27083,50.27083 0 0 1 -0.18552,0.244437 50.27083,50.27083 0 0 1 -0.18706,0.24287 50.27083,50.27083 0 0 1 -0.18862,0.241847 50.27083,50.27083 0 0 1 -0.189657,0.24081 50.27083,50.27083 0 0 1 -0.19172,0.239777 50.27083,50.27083 0 0 1 -0.19275,0.23823 50.27083,50.27083 0 0 1 -0.194297,0.237187 50.27083,50.27083 0 0 1 -0.19585,0.23617 50.27083,50.27083 0 0 1 -0.19741,0.23512 50.27083,50.27083 0 0 1 -0.198437,0.233577 50.27083,50.27083 0 0 1 -0.19999,0.23254 50.27083,50.27083 0 0 1 -0.201527,0.230997 50.27083,50.27083 0 0 1 -0.20309,0.22996 50.27083,50.27083 0 0 1 -0.20412,0.228917 50.27083,50.27083 0 0 1 -0.205677,0.22738 50.27083,50.27083 0 0 1 -0.20722,0.22634 50.27083,50.27083 0 0 1 -0.208247,0.224787 50.27083,50.27083 0 0 1 -0.20981,0.22376 50.27083,50.27083 0 0 1 -0.21136,0.222207 50.27083,50.27083 0 0 1 -0.212387,0.22118 50.27083,50.27083 0 0 1 -0.21394,0.219617 50.27083,50.27083 0 0 1 -0.214967,0.2186 50.27083,50.27083 0 0 1 -0.21653,0.21704 50.27083,50.27083 0 0 1 -0.21807,0.215997 50.27083,50.27083 0 0 1 -0.219107,0.21446 50.27083,50.27083 0 0 1 -0.22066,0.213417 50.27083,50.27083 0 0 1 -0.221687,0.21188 50.27083,50.27083 0 0 1 -0.22272,0.21032 50.27083,50.27083 0 0 1 -0.22428,0.209287 50.27083,50.27083 0 0 1 -0.225817,0.20774 50.27083,50.27083 0 0 1 -0.22687,0.206187 50.27083,50.27083 0 0 1 -0.227887,0.20515 50.27083,50.27083 0 0 1 -0.22944,0.20309 50.27083,50.27083 0 0 1 -0.230997,0.202567 50.27083,50.27083 0 0 1 -0.23151,0.20051 50.27083,50.27083 0 0 1 -0.233057,0.19947 50.27083,50.27083 0 0 1 -0.23461,0.197917 50.27083,50.27083 0 0 1 -0.23513,0.19637 50.27083,50.27083 0 0 1 -0.236667,0.195337 50.27083,50.27083 0 0 1 -0.23772,0.19327 50.27083,50.27083 0 0 1 -0.239257,0.19223 50.27083,50.27083 0 0 1 -0.24029,0.190687 50.27083,50.27083 0 0 1 -0.241327,0.18913 50.27083,50.27083 0 0 1 -0.24236,0.18759 50.27083,50.27083 0 0 1 -0.243917,0.186547 50.27083,50.27083 0 0 1 -0.24443,0.18449 50.27083,50.27083 0 0 1 -0.245967,0.18345 50.27083,50.27083 0 0 1 -0.24702,0.181897 50.27083,50.27083 0 0 1 -0.24805,0.17983 50.27083,50.27083 0 0 1 -0.249077,0.1788 50.27083,50.27083 0 0 1 -0.25063,0.177247 50.27083,50.27083 0 0 1 -0.251137,0.1757 50.27083,50.27083 0 0 1 -0.2527,0.17415 50.27083,50.27083 0 0 1 -0.253217,0.172597 50.27083,50.27083 0 0 1 -0.25476,0.17105 50.27083,50.27083 0 0 1 -0.255277,0.1695 50.27083,50.27083 0 0 1 -0.25683,0.167947 50.27083,50.27083 0 0 1 -0.257867,0.1664 50.27083,50.27083 0 0 1 -0.25838,0.16485 50.27083,50.27083 0 0 1 -0.259937,0.163287 50.27083,50.27083 0 0 1 -0.16433,0.1018 50.27083,50.27083 0 0 0 26.458265,7.52613 50.27083,50.27083 0 0 0 0.14934,0 z" />
  </g>
</svg>
